<svg width="24" height="24" viewBox="0 0 24 24" fill="none" xmlns="http://www.w3.org/2000/svg">
<path d="M12 16.6771V14.1401" stroke="white" stroke-width="1.5" stroke-linecap="round" stroke-linejoin="round"/>
<path fill-rule="evenodd" clip-rule="evenodd" d="M18.19 5.33057C19.88 5.33057 21.24 6.70057 21.24 8.39057V11.8306C18.78 13.2706 15.53 14.1406 11.99 14.1406C8.45 14.1406 5.21 13.2706 2.75 11.8306V8.38057C2.75 6.69057 4.12 5.33057 5.81 5.33057H18.19Z" stroke="white" stroke-width="1.5" stroke-linecap="round" stroke-linejoin="round"/>
<path d="M15.5 5.326V4.96C15.5 3.74 14.51 2.75 13.29 2.75H10.71C9.49 2.75 8.5 3.74 8.5 4.96V5.326" stroke="white" stroke-width="1.5" stroke-linecap="round" stroke-linejoin="round"/>
<path d="M2.77344 15.4834L2.96244 17.9924C3.09044 19.6834 4.49944 20.9904 6.19444 20.9904H17.7934C19.4884 20.9904 20.8974 19.6834 21.0254 17.9924L21.2144 15.4834" stroke="white" stroke-width="1.5" stroke-linecap="round" stroke-linejoin="round"/>
</svg>
