<svg width="24" height="24" viewBox="0 0 24 24" fill="none" xmlns="http://www.w3.org/2000/svg">
<path fill-rule="evenodd" clip-rule="evenodd" d="M12 2.75C17.108 2.75 21.25 6.891 21.25 12C21.25 17.108 17.108 21.25 12 21.25C6.891 21.25 2.75 17.108 2.75 12C2.75 6.891 6.891 2.75 12 2.75Z" stroke="white" stroke-width="1.5" stroke-linecap="round" stroke-linejoin="round"/>
<path d="M11.995 15.7959H12.005" stroke="white" stroke-width="2" stroke-linecap="round" stroke-linejoin="round"/>
<path d="M9.78125 9.66915C9.98288 9.11262 10.3809 8.64334 10.9047 8.34442C11.4286 8.0455 12.0445 7.93623 12.6433 8.03596C13.2422 8.1357 13.7854 8.43801 14.1767 8.88934C14.568 9.34067 14.7822 9.91191 14.7812 10.5019C14.7812 12.1673 12.2083 13 12.2083 13" stroke="white" stroke-width="1.5" stroke-linecap="round" stroke-linejoin="round"/>
</svg>
