<svg width="24" height="24" viewBox="0 0 24 24" fill="none" xmlns="http://www.w3.org/2000/svg">
<path d="M17.8906 10.8967C19.2856 10.7007 20.3596 9.50473 20.3626 8.05573C20.3626 6.62773 19.3216 5.44373 17.9566 5.21973" stroke="white" stroke-width="1.5" stroke-linecap="round" stroke-linejoin="round"/>
<path d="M19.7344 14.2505C21.0854 14.4525 22.0284 14.9255 22.0284 15.9005C22.0284 16.5715 21.5844 17.0075 20.8664 17.2815" stroke="white" stroke-width="1.5" stroke-linecap="round" stroke-linejoin="round"/>
<path fill-rule="evenodd" clip-rule="evenodd" d="M11.8887 14.6641C8.67469 14.6641 5.92969 15.1511 5.92969 17.0961C5.92969 19.0401 8.65769 19.5411 11.8887 19.5411C15.1027 19.5411 17.8467 19.0591 17.8467 17.1131C17.8467 15.1671 15.1197 14.6641 11.8887 14.6641Z" stroke="white" stroke-width="1.5" stroke-linecap="round" stroke-linejoin="round"/>
<path fill-rule="evenodd" clip-rule="evenodd" d="M11.8815 11.888C13.9905 11.888 15.7005 10.179 15.7005 8.069C15.7005 5.96 13.9905 4.25 11.8815 4.25C9.77253 4.25 8.06253 5.96 8.06253 8.069C8.05453 10.171 9.75153 11.881 11.8535 11.888H11.8815Z" stroke="white" stroke-width="1.5" stroke-linecap="round" stroke-linejoin="round"/>
<path d="M5.88606 10.8967C4.49006 10.7007 3.41706 9.50473 3.41406 8.05573C3.41406 6.62773 4.45506 5.44373 5.82006 5.21973" stroke="white" stroke-width="1.5" stroke-linecap="round" stroke-linejoin="round"/>
<path d="M4.044 14.2505C2.693 14.4525 1.75 14.9255 1.75 15.9005C1.75 16.5715 2.194 17.0075 2.912 17.2815" stroke="white" stroke-width="1.5" stroke-linecap="round" stroke-linejoin="round"/>
</svg>
