<svg width="28" height="29" viewBox="0 0 28 29" fill="none" xmlns="http://www.w3.org/2000/svg">
<path d="M11.885 26.3574C10.5208 27.8721 8.39281 27.8901 7.01562 26.3574M9.5 23.3476C15.1392 23.3476 17.7481 22.6242 18 19.7205C18 16.8188 16.1812 17.0054 16.1812 13.4451C16.1812 10.6641 13.5452 7.5 9.5 7.5C5.45477 7.5 2.81885 10.6641 2.81885 13.4451C2.81885 17.0054 1 16.8188 1 19.7205C1.25295 22.6352 3.86177 23.3476 9.5 23.3476Z" stroke="#0C2115" stroke-width="1.5" stroke-linecap="round" stroke-linejoin="round"/>
<path d="M28 4.5C28 6.70914 26.2091 8.5 24 8.5C21.7909 8.5 20 6.70914 20 4.5C20 2.29086 21.7909 0.5 24 0.5C26.2091 0.5 28 2.29086 28 4.5Z" fill="#C41818"/>
</svg>
