<svg width="24" height="24" viewBox="0 0 24 24" fill="none" xmlns="http://www.w3.org/2000/svg">
<path fill-rule="evenodd" clip-rule="evenodd" d="M20.8093 7.62337L20.1869 6.54328C19.6603 5.62936 18.4934 5.31408 17.5782 5.83847V5.83847C17.1426 6.0951 16.6228 6.16791 16.1334 6.04084C15.644 5.91378 15.2253 5.59727 14.9695 5.16113C14.805 4.8839 14.7166 4.56815 14.7132 4.2458V4.2458C14.7281 3.72898 14.5331 3.22816 14.1727 2.85743C13.8123 2.48669 13.3172 2.27762 12.8002 2.27783H11.5462C11.0397 2.27783 10.554 2.47967 10.1967 2.8387C9.83937 3.19773 9.63986 3.68435 9.6423 4.19088V4.19088C9.62728 5.23668 8.77517 6.07657 7.72925 6.07646C7.4069 6.07311 7.09114 5.9847 6.81392 5.82017V5.82017C5.89875 5.29577 4.7318 5.61105 4.20522 6.52497L3.53703 7.62337C3.0111 8.53615 3.32209 9.70236 4.23268 10.2321V10.2321C4.82459 10.5738 5.18922 11.2053 5.18922 11.8888C5.18922 12.5723 4.82459 13.2038 4.23268 13.5456V13.5456C3.32324 14.0717 3.01191 15.2351 3.53703 16.1451V16.1451L4.16861 17.2344C4.41533 17.6795 4.82929 18.0081 5.31888 18.1472C5.80847 18.2863 6.33333 18.2247 6.77731 17.9758V17.9758C7.21377 17.7211 7.73387 17.6513 8.22203 17.782C8.71018 17.9126 9.12592 18.2328 9.37685 18.6714C9.54138 18.9486 9.62979 19.2644 9.63314 19.5868V19.5868C9.63314 20.6433 10.4896 21.4998 11.5462 21.4998H12.8002C13.8532 21.4998 14.7082 20.6489 14.7132 19.5959V19.5959C14.7108 19.0878 14.9116 18.5998 15.2708 18.2405C15.6301 17.8812 16.1182 17.6804 16.6263 17.6829C16.9479 17.6915 17.2623 17.7795 17.5416 17.9392V17.9392C18.4544 18.4651 19.6206 18.1541 20.1503 17.2435V17.2435L20.8093 16.1451C21.0644 15.7073 21.1345 15.1858 21.0039 14.6961C20.8733 14.2065 20.5529 13.7891 20.1137 13.5364V13.5364C19.6744 13.2837 19.3541 12.8663 19.2235 12.3767C19.0929 11.8871 19.1629 11.3656 19.418 10.9277C19.5839 10.6381 19.8241 10.398 20.1137 10.2321V10.2321C21.0188 9.70265 21.3291 8.54325 20.8093 7.63252V7.63252V7.62337Z" stroke="black" stroke-width="1.5" stroke-linecap="round" stroke-linejoin="round"/>
<ellipse cx="12.183" cy="11.8886" rx="2.63616" ry="2.63616" stroke="black" stroke-width="1.5" stroke-linecap="round" stroke-linejoin="round"/>
</svg>
