<svg width="20" height="20" viewBox="0 0 20 20" fill="none" xmlns="http://www.w3.org/2000/svg">
<g clip-path="url(#clip0_492_20657)">
<path d="M6.89652 12.9024C6.50309 12.6366 6.23074 12.2485 6.08203 11.7353L6.9952 11.359C7.07809 11.6748 7.22281 11.9195 7.42941 12.0932C7.63469 12.2669 7.88469 12.3524 8.1768 12.3524C8.47547 12.3524 8.73207 12.2616 8.94652 12.08C9.16102 11.8985 9.26891 11.6669 9.26891 11.3866C9.26891 11.0998 9.15574 10.8655 8.92941 10.684C8.70309 10.5024 8.41891 10.4116 8.07941 10.4116H7.5518V9.50766H8.02547C8.31758 9.50766 8.56363 9.42871 8.76363 9.27082C8.96363 9.11293 9.06363 8.89715 9.06363 8.62215C9.06363 8.37742 8.97414 8.18266 8.7952 8.03664C8.61625 7.89059 8.38992 7.81691 8.11492 7.81691C7.84648 7.81691 7.63336 7.88797 7.47543 8.03141C7.31754 8.17484 7.20305 8.35113 7.1307 8.55902L6.22676 8.18269C6.34648 7.8432 6.56625 7.5432 6.88859 7.28402C7.21098 7.0248 7.62281 6.89453 8.12281 6.89453C8.49254 6.89453 8.82543 6.96559 9.12019 7.10902C9.41492 7.25246 9.64652 7.45113 9.81363 7.70375C9.98074 7.95769 10.0636 8.24191 10.0636 8.5577C10.0636 8.88008 9.98602 9.15242 9.83074 9.37613C9.67547 9.5998 9.48469 9.77086 9.25836 9.89062V9.94457C9.55703 10.0696 9.80047 10.2604 9.99258 10.517C10.1834 10.7735 10.2794 11.0801 10.2794 11.438C10.2794 11.7959 10.1886 12.1156 10.007 12.3959C9.82547 12.6762 9.57414 12.8972 9.2557 13.0577C8.93598 13.2182 8.57676 13.2998 8.17809 13.2998C7.71625 13.3011 7.28996 13.1682 6.89652 12.9024Z" fill="#0085F7"/>
<path d="M12.5039 8.37098L11.5013 9.09598L11 8.33543L12.7987 7.03809H13.4882V13.1578H12.5039V8.37098Z" fill="#0085F7"/>
<path d="M15.2636 15.2632H4.73727L3.23047 17.4834L4.73727 20H15.2636L16.5084 17.3224L15.2636 15.2632Z" fill="#00A94B"/>
<path d="M15.2632 0H1.57895C0.706562 0 0 0.706563 0 1.57895V15.2632L2.36844 16.9469L4.73687 15.2632V4.73684H15.2632L16.8836 2.3684L15.2632 0Z" fill="#0085F7"/>
<path d="M0 15.2632V18.4211C0 19.2935 0.706563 20 1.57895 20H4.73684V15.2632H0Z" fill="#00802E"/>
<path d="M19.9986 4.73688L17.6301 3.21289L15.2617 4.73688V15.2632L17.3918 16.375L19.9986 15.2632V4.73688Z" fill="#FFBC00"/>
<path d="M19.9986 4.73684V1.57895C19.9986 0.706563 19.292 0 18.4196 0H15.2617V4.73684H19.9986Z" fill="#0067D5"/>
<path d="M15.2617 20L19.9986 15.2632H15.2617V20Z" fill="#FF4131"/>
</g>
<defs>
<clipPath id="clip0_492_20657">
<rect width="20" height="20" fill="white"/>
</clipPath>
</defs>
</svg>
