<svg width="135" height="32" viewBox="0 0 135 32" fill="none" xmlns="http://www.w3.org/2000/svg">
<path d="M16.0686 0.960003L1.08398 30.8972H31.0532L16.0686 0.960003ZM5.38506 28.3823L16.0686 7.03886L24.1006 23.0861H14.4258L13.3092 23.0675L14.4258 20.8293H20.4489L16.0635 12.0787L9.03844 26.1255H25.6389L26.7521 28.3823H5.38506Z" fill="url(#paint0_linear_4129_323)"/>
<path d="M40.1926 2.64639V18.9179H48.7796V21.954H36.5713V2.64639H40.1926Z" fill="white"/>
<path d="M51.0947 21.9588V8.44835H54.7144V21.9588H51.0947Z" fill="white"/>
<path d="M71.2465 8.44836V21.9588H68.1834L62.226 14.6149H62.2041V21.9588H58.5625V8.44836H61.5986L67.5779 15.8142H67.5981V8.44836H71.2465Z" fill="white"/>
<path d="M83.4742 16.5378H78.7161V18.9177H87.0956V21.9537H75.0947V8.44836H86.6402V11.4844H78.7127V13.6215H83.4709L83.4742 16.5378Z" fill="white"/>
<path d="M87.8398 21.9588L94.1093 8.44836H97.1082L103.378 21.9588H99.4258L98.5571 19.8909H92.5154L91.672 21.9588H87.8398ZM93.6741 17.0758H97.3983L95.5986 12.7528H95.4721L93.6741 17.0758Z" fill="white"/>
<path d="M115.71 12.65C114.469 11.638 112.732 11.078 111.494 11.078C109.259 11.078 107.707 12.9604 107.707 15.2155C107.707 17.3272 109.073 19.3125 111.701 19.3125C112.713 19.3125 113.811 19.0645 114.577 18.5889V16.7453H110.679V13.9319H118.023V20.139C116.183 21.4883 113.678 22.3317 111.568 22.3317C107.203 22.3317 103.954 19.1455 103.954 15.1936C103.954 11.2416 107.265 8.03523 111.465 8.03523C113.575 8.03523 115.955 8.86171 118.003 10.4135L115.71 12.65Z" fill="white"/>
<path d="M129.919 16.5377H125.155V18.9177H133.535V21.9537H121.539V8.44835H133.083V11.4844H125.155V13.6214H129.914L129.919 16.5377Z" fill="white"/>
<g opacity="0.6">
<path d="M36.5244 30.9178V26.9136H39.8405V27.5259H37.2311V28.5193H38.8166V29.1333H37.2311V30.9178H36.5244Z" fill="white"/>
<path d="M42.0332 30.9178V26.9136H42.7399V30.9178H42.0332Z" fill="white"/>
<path d="M49.2236 26.9136V30.9178H48.5978L46.2162 28.1398V30.9178H45.5078V26.9136H46.1336L48.5084 29.6865V26.9136H49.2236Z" fill="white"/>
<path d="M53.3343 26.9136H53.9736L55.888 30.9178H55.1104L54.6044 29.8383H52.6512L52.1587 30.9178H51.4199L53.3343 26.9136ZM52.9042 29.2868H54.3632L53.6565 27.735H53.6177L52.9042 29.2868Z" fill="white"/>
<path d="M58.7992 26.9136V30.3039H61.3293V30.9178H58.0908V26.9136H58.7992Z" fill="white"/>
<path d="M71.3164 29.1333H69.7292V30.3039H72.5291V30.9178H69.0225V26.9136H72.3706V27.5259H69.7292V28.5193H71.3164V29.1333Z" fill="white"/>
<path d="M78.5365 26.9136L76.9139 28.8263L78.6209 30.9178H77.7168L76.4534 29.3104L75.1378 30.9178H74.2793L76.0301 28.8567L74.4497 26.9136H75.3537L76.4906 28.3726L77.6712 26.9136H78.5365Z" fill="white"/>
<path d="M80.8291 30.9178V26.9136H83.1045C83.6847 26.9136 84.0456 27.0721 84.2986 27.337C84.5127 27.5495 84.634 27.8381 84.636 28.1398C84.6357 28.3024 84.6019 28.4632 84.5365 28.6121C84.4712 28.761 84.3759 28.8948 84.2565 29.0051C84.0102 29.2311 83.6628 29.3779 83.1129 29.3779H81.5459V30.9178H80.8291ZM81.5375 27.5259V28.7656H83.1045C83.3307 28.7829 83.5549 28.7122 83.7302 28.5682C83.7892 28.5148 83.8364 28.4498 83.8689 28.3772C83.9014 28.3046 83.9185 28.2261 83.9191 28.1466C83.9196 28.0712 83.9049 27.9966 83.8759 27.927C83.847 27.8575 83.8043 27.7945 83.7505 27.7418C83.6639 27.6631 83.5619 27.6032 83.451 27.5661C83.3401 27.5289 83.2226 27.5152 83.1061 27.5259H81.5375Z" fill="white"/>
<path d="M89.1943 29.1333H87.6071V30.3039H90.407V30.9178H86.9004V26.9136H90.2485V27.5259H87.6071V28.5193H89.1943V29.1333Z" fill="white"/>
<path d="M96.4648 26.9136V30.9178H95.8391L93.4574 28.1398V30.9178H92.749V26.9136H93.3748L95.7497 29.6865V26.9136H96.4648Z" fill="white"/>
<path d="M102.143 27.8513C101.915 27.6488 101.404 27.3857 100.645 27.3857C100.153 27.3857 99.7157 27.5392 99.7157 27.9609C99.7157 28.3826 100.33 28.4146 100.955 28.4585C101.694 28.5074 102.856 28.5816 102.856 29.6965C102.856 30.6663 102.023 31.0459 101.036 31.0459C100.205 31.0604 99.3991 30.759 98.7812 30.2025L99.2114 29.7235C99.7095 30.1903 100.367 30.4491 101.05 30.4471C101.662 30.4471 102.15 30.2447 102.15 29.791C102.15 29.2849 101.676 29.1837 100.955 29.1281C100.045 29.0674 99.009 28.9931 99.009 28.025C99.009 27.0568 99.913 26.792 100.67 26.792C101.349 26.785 102.014 26.9883 102.573 27.3739L102.143 27.8513Z" fill="white"/>
<path d="M107.501 29.1333H105.924V30.3039H108.717V30.9178H105.207V26.9136H108.557V27.5259H105.924V28.5193H107.509L107.501 29.1333Z" fill="white"/>
<path d="M120.486 30.2058C119.942 30.7376 119.212 31.0355 118.451 31.0357C117.102 31.0357 116.196 30.0844 116.196 28.9071C116.196 27.7298 117.099 26.7852 118.419 26.7852C119.128 26.7825 119.815 27.0338 120.354 27.4936L119.873 27.9541C119.474 27.6055 118.963 27.4101 118.433 27.4025C118.057 27.4419 117.709 27.6201 117.458 27.9023C117.206 28.1845 117.069 28.5504 117.073 28.9284C117.077 29.3064 117.222 29.6693 117.479 29.9461C117.737 30.2229 118.088 30.3937 118.465 30.4251C118.755 30.4216 119.041 30.3601 119.306 30.2442C119.572 30.1283 119.812 29.9604 120.012 29.7504L120.486 30.2058Z" fill="white"/>
<path d="M122.767 30.9178V26.9136H125.042C125.592 26.9136 125.97 27.0603 126.236 27.337C126.45 27.5498 126.571 27.8383 126.573 28.1398C126.573 28.6796 126.206 29.0894 125.663 29.2868L126.649 30.9178H125.83L124.946 29.3779H123.468V30.9178H122.767ZM123.475 27.5259V28.7656H125.162C125.335 28.7721 125.505 28.7102 125.634 28.5932C125.762 28.4762 125.84 28.3134 125.85 28.1398C125.85 28.0656 125.835 27.9922 125.806 27.9238C125.777 27.8555 125.734 27.7936 125.681 27.7418C125.595 27.6621 125.493 27.6016 125.382 27.5644C125.271 27.5272 125.153 27.514 125.037 27.5259H123.475Z" fill="white"/>
<path d="M132.638 30.9178V28.1955H132.606L131.235 30.4388H131.122L129.751 28.1955H129.719V30.9178H129.044V26.9136H129.771L131.205 29.275H131.223L132.657 26.9136H133.352V30.9178H132.638Z" fill="white"/>
</g>
<defs>
<linearGradient id="paint0_linear_4129_323" x1="1.08398" y1="15.9294" x2="31.0532" y2="15.9294" gradientUnits="userSpaceOnUse">
<stop stop-color="#1AB95F"/>
<stop offset="1" stop-color="#009033"/>
</linearGradient>
</defs>
</svg>
